<?xml version="1.0" standalone="no"?>
<!DOCTYPE svg PUBLIC "-//W3C//DTD SVG 20010904//EN"
 "http://www.w3.org/TR/2001/REC-SVG-20010904/DTD/svg10.dtd">
<svg version="1.0" xmlns="http://www.w3.org/2000/svg"
 width="155.000000pt" height="107.000000pt" viewBox="0 0 155.000000 107.000000"
 preserveAspectRatio="xMidYMid meet">

<g transform="translate(0.000000,107.000000) scale(0.100000,-0.100000)"
fill="#000000" stroke="none">
<path d="M0 535 l0 -535 775 0 775 0 0 535 0 535 -775 0 -775 0 0 -535z m376
256 c22 -10 88 -59 146 -109 l106 -91 23 26 c35 36 72 53 121 53 41 0 56 -7
122 -54 l26 -18 46 38 c204 171 230 185 324 165 65 -13 115 -51 150 -112 36
-63 36 -165 0 -229 -39 -69 -96 -104 -179 -108 -85 -5 -112 8 -245 122 l-100
84 -68 -59 c-38 -32 -73 -59 -77 -59 -4 0 -38 27 -77 59 -67 58 -70 59 -89 42
-95 -83 -180 -154 -200 -167 -95 -62 -252 -17 -305 87 -41 79 -36 178 12 249
59 87 174 122 264 81z"/>
<path d="M215 763 c-81 -42 -121 -115 -113 -207 8 -97 73 -168 166 -182 70
-11 110 8 225 108 87 74 105 94 95 105 -28 34 -195 167 -225 179 -43 18 -111
17 -148 -3z m222 -78 c47 -54 14 -155 -54 -168 -36 -7 -86 14 -107 44 -18 26
-21 81 -6 109 29 55 126 63 167 15z"/>
<path d="M1175 761 c-51 -24 -239 -181 -228 -191 36 -34 181 -155 199 -167 64
-41 157 -35 223 14 112 85 85 295 -45 349 -46 19 -101 17 -149 -5z m76 -70
c64 -65 20 -171 -71 -171 -57 0 -100 44 -100 102 0 89 107 132 171 69z"/>
<path d="M725 635 c-16 -7 -41 -23 -55 -35 l-25 -20 60 -55 c33 -30 62 -54 65
-54 3 0 32 24 64 54 l60 54 -25 21 c-27 23 -81 50 -101 50 -7 -1 -26 -7 -43
-15z"/>
</g>
</svg>
